<?xml version="1.0" standalone="no"?>
<!DOCTYPE svg PUBLIC "-//W3C//DTD SVG 20010904//EN"
 "http://www.w3.org/TR/2001/REC-SVG-20010904/DTD/svg10.dtd">
<svg version="1.0" xmlns="http://www.w3.org/2000/svg"
 width="32.000000pt" height="32.000000pt" viewBox="0 0 32.000000 32.000000"
 preserveAspectRatio="xMidYMid meet">

<g transform="translate(0.000000,32.000000) scale(0.100000,-0.100000)"
fill="#000000" stroke="none">
<path d="M45 220 c-15 -16 -17 -26 -9 -48 7 -20 6 -34 -6 -54 -13 -25 -13 -31
0 -55 11 -19 25 -29 45 -31 17 -2 44 -10 62 -19 24 -13 37 -14 55 -6 14 6 32
7 46 2 46 -17 90 29 72 75 -5 14 -14 26 -20 26 -7 0 -8 6 0 19 15 29 12 49
-10 71 -23 23 -57 26 -79 6 -9 -7 -33 -16 -53 -19 -39 -6 -44 0 -39 41 3 20
-44 14 -64 -8z"/>
</g>
</svg>
